<?xml version="1.0" encoding="utf-8"?>
<!-- Generator: Adobe Illustrator 21.0.0, SVG Export Plug-In . SVG Version: 6.00 Build 0)  -->
<svg version="1.1" id="Layer_1" xmlns="http://www.w3.org/2000/svg" xmlns:xlink="http://www.w3.org/1999/xlink" x="0px" y="0px"
	 viewBox="0 0 142.6 50" style="enable-background:new 0 0 142.6 50;" xml:space="preserve">
<style type="text/css">
	.st0{fill:#ECECEC;}
	.st1{fill:#C1A57B;}
	.st2{fill:none;stroke:#FFFFFF;stroke-miterlimit:10;}
</style>
<path class="st0" d="M52.8,19c0.3,0,0.5,0.2,0.5,0.5v8.3H54c0.7,0,1.4,0,2-0.1c0.7,0,1.4-0.1,2.1-0.3l0.2,1.5
	c-0.7,0.1-1.5,0.2-2.3,0.3c-0.8,0-1.8,0.1-2.8,0.1h-1.7v-9.8c0-0.3,0.2-0.5,0.5-0.5H52.8z M64.4,33.8h-0.7c-0.3,0-0.5-0.2-0.5-0.5
	v-8.5c0-0.3-0.2-0.5-0.5-0.5h-1.1c-0.3,0-0.5,0.2-0.5,0.5v7.7c0,0.3-0.2,0.5-0.5,0.5h-0.7c-0.3,0-0.5-0.2-0.5-0.5V18.3
	c0-0.3,0.2-0.5,0.5-0.5h0.7c0.3,0,0.5,0.2,0.5,0.5v4c0,0.3,0.2,0.5,0.5,0.5h1.1c0.3,0,0.5-0.2,0.5-0.5V18c0-0.3,0.2-0.5,0.5-0.5h0.7
	c0.3,0,0.5,0.2,0.5,0.5v15.4C64.9,33.6,64.7,33.8,64.4,33.8z"/>
<path class="st1" d="M76,22.2c-0.1,0.2-0.3,0.4-0.5,0.8c-0.3,0.3-0.6,0.6-1,0.9c-0.5,0.4-1,0.8-1.6,1.2c-0.6,0.5-1.2,0.9-1.9,1.3
	l-1.2-1.6c0.7-0.5,1.4-0.9,2.1-1.4s1.2-0.9,1.6-1.3c0.3-0.3,0.5-0.5,0.7-0.8c0.2-0.2,0.3-0.5,0.4-0.8s0.2-0.6,0.2-0.9s0-0.7,0-1.1
	v-0.2h-4.4v-1.9h10.8v1.9h-4.1v0.1c0,0.4,0,0.7,0,1s0,0.5,0.1,0.8c0.1,0.2,0.2,0.5,0.3,0.7c0.1,0.2,0.4,0.4,0.6,0.7
	c0.5,0.4,1.1,0.9,1.7,1.3s1.3,0.9,1.9,1.3l-1.2,1.6c-0.6-0.4-1.2-0.8-1.7-1.2c-0.6-0.4-1.1-0.8-1.6-1.2c-0.3-0.2-0.6-0.5-0.8-0.7
	C76.3,22.5,76.1,22.3,76,22.2L76,22.2z M86.4,27.5v7.8c0,0.3-0.3,0.6-0.6,0.6H74.1c-0.3,0-0.6-0.3-0.6-0.6v-7.8
	c0-0.3,0.3-0.6,0.6-0.6H75c0.3,0,0.6,0.3,0.6,0.6v1.3c0,0.3,0.3,0.6,0.6,0.6h7.2c0.3,0,0.6-0.3,0.6-0.6v-1.3c0-0.3,0.3-0.6,0.6-0.6
	h0.9C86.1,26.9,86.4,27.1,86.4,27.5z M84.2,33.4V32c0-0.3-0.3-0.6-0.6-0.6h-7.2c-0.3,0-0.6,0.3-0.6,0.6v1.4c0,0.3,0.3,0.6,0.6,0.6
	h7.2C83.9,34,84.2,33.8,84.2,33.4z M84.2,25.2v-9.3c0-0.3,0.3-0.6,0.6-0.6h0.9c0.3,0,0.6,0.3,0.6,0.6v9.3c0,0.3-0.3,0.6-0.6,0.6
	h-0.9C84.4,25.9,84.2,25.6,84.2,25.2z"/>
<g>
	<path class="st0" d="M97,33.3v-5.7c0-0.3-0.2-0.5-0.5-0.5h-6.1v-1.5h4.5c0.1-0.4,0.2-0.9,0.3-1.4c0.1-0.5,0.2-0.9,0.2-1.4
		c0.1-0.4,0.1-0.8,0.1-1.2c0-0.4,0-0.7,0-1V20h-3.7v-1.5h5.4v1.2c0,1-0.1,2-0.2,3c-0.1,0.8-0.2,1.6-0.4,2.3
		c-0.1,0.3,0.2,0.6,0.5,0.6h3.4c0.2,0,0.4-0.2,0.5-0.4c0.2-0.9,0.3-1.6,0.4-2.3c0.1-0.8,0.1-1.5,0.1-2.2V20h-3.6v-1.5h5.3v1.2
		c0,0.9,0,1.8-0.1,2.8c0,0.8-0.1,1.6-0.3,2.5c-0.1,0.3,0.2,0.6,0.5,0.6h2v1.5h-6.1c-0.3,0-0.5,0.2-0.5,0.5v5.7
		c0,0.3-0.2,0.5-0.5,0.5h-0.8C97.2,33.8,97,33.6,97,33.3z"/>
	<path class="st0" d="M107.7,29v-9.6c0-0.3,0.2-0.5,0.5-0.5h6.6c0.3,0,0.5,0.2,0.5,0.5V29c0,0.3-0.2,0.5-0.5,0.5h-6.6
		C107.9,29.5,107.7,29.2,107.7,29z M109.9,28h3.2c0.3,0,0.5-0.2,0.5-0.5v-6.6c0-0.3-0.2-0.5-0.5-0.5h-3.2c-0.3,0-0.5,0.2-0.5,0.5
		v6.6C109.4,27.8,109.7,28,109.9,28z M118.3,33.3V17.9c0-0.3,0.2-0.5,0.5-0.5h0.7c0.3,0,0.5,0.2,0.5,0.5v15.4c0,0.3-0.2,0.5-0.5,0.5
		h-0.7C118.5,33.8,118.3,33.6,118.3,33.3z"/>
	<path class="st0" d="M123.4,28.8c0.9-0.6,1.7-1,2.4-1.5c0.7-0.4,1.2-0.8,1.6-1.2c0.4-0.4,0.8-0.7,1-1s0.4-0.6,0.6-0.9
		c0.1-0.3,0.2-0.6,0.2-1c0-0.3,0-0.7,0-1.2v-1.6h-5.6v-1.5h6.8c0.3,0,0.5,0.2,0.5,0.5V22c0,0.5,0,1,0,1.4s-0.1,0.8-0.3,1.2
		c-0.1,0.4-0.4,0.8-0.6,1.1s-0.7,0.8-1.2,1.2c-0.5,0.4-1.1,0.9-1.9,1.4c-0.8,0.5-1.7,1.1-2.7,1.7L123.4,28.8z M134.5,33.3V17.9
		c0-0.3,0.2-0.5,0.5-0.5h0.7c0.3,0,0.5,0.2,0.5,0.5v15.4c0,0.3-0.2,0.5-0.5,0.5H135C134.7,33.8,134.5,33.6,134.5,33.3z"/>
</g>
<path class="st2" d="M22.8,60.9"/>
<g>
	<rect x="14.4" y="35.9" class="st1" width="3.9" height="3.1"/>
	<rect x="22.4" y="33.3" class="st1" width="6.4" height="2.6"/>
	<rect x="22.4" y="36.9" class="st1" width="6.4" height="2.1"/>
	<rect x="33" y="35.9" class="st1" width="3.9" height="3.1"/>
	<path class="st1" d="M25.9,15.4v5.3c1.8,0.2,3.3,1.7,3.3,3.6c-2.3,0-5.3,0-7.2,0c0-1.9,1.5-3.4,3.3-3.6v-5.3c0,0,0-0.1,0-0.1
		l-17,7.9v14.8c0,0.5,0.4,0.9,0.9,0.9h4.1v-9.6h1v5.5h4.9V39h2.2v-2.6v-0.5v-2.6h-3.5v-1h15.4v1h-3.5v2.6v0.5V39H32v-4.1h4.9v-5.5h1
		V39H42c0.5,0,0.9-0.4,0.9-0.9V23.3L25.9,15.4C25.9,15.4,25.9,15.4,25.9,15.4z"/>
	<path class="st1" d="M42,10.4H9.3c-0.5,0-0.9,0.4-0.9,0.9V20l17.3-8l17.3,8v-8.6C42.9,10.8,42.5,10.4,42,10.4z"/>
</g>
</svg>
